<svg id="Layer_1" data-name="Layer 1" xmlns="http://www.w3.org/2000/svg" viewBox="0 0 435.51 298.15"><defs><style>.cls-1,.cls-2,.cls-3{fill:none;}.cls-1{stroke:#999;}.cls-1,.cls-2,.cls-3,.cls-6{stroke-miterlimit:10;}.cls-2,.cls-3,.cls-6{stroke:#000;}.cls-2{stroke-width:0.5px;}.cls-4{fill:#a6a6a6;}.cls-5{fill:#666;}</style></defs><title>Irradiance from radiance</title><path class="cls-1" d="M357.76,202.83c0-33.81-62.75-61.23-140.15-61.23S77.46,169,77.46,202.83"/><polygon class="cls-2" points="435.09 111.42 98.11 109.58 0.41 296.06 337.39 297.9 435.09 111.42"/><line class="cls-3" x1="217.75" y1="203.35" x2="217.75" y2="37.91"/><polygon points="223.26 42.82 217.75 38.56 212.25 42.82 217.75 29.8 223.26 42.82"/><polygon class="cls-4" points="222.06 41.26 217.75 31.11 217.75 37.92 222.06 41.26"/><polygon class="cls-5" points="213.46 41.26 217.75 31.11 217.75 37.92 213.46 41.26"/><circle class="cls-6" cx="217.63" cy="203.06" r="2.25"/><path d="M212.16,217.36c0-1.48,0-2.68-.1-3.79H214l.1,2h0a4.59,4.59,0,0,1,4.13-2.25c2.81,0,4.92,2.37,4.92,5.9,0,4.18-2.54,6.24-5.28,6.24a4.06,4.06,0,0,1-3.57-1.82h-.05v6.31h-2.09Zm2.09,3.1a5.54,5.54,0,0,0,.09.86,3.27,3.27,0,0,0,3.17,2.48c2.23,0,3.53-1.83,3.53-4.49,0-2.33-1.22-4.32-3.46-4.32a3.37,3.37,0,0,0-3.19,2.61,3.59,3.59,0,0,0-.14.87Z"/><path d="M212.71,11.62c0-1.2,0-2.19-.1-3.15h1.87l.13,1.92h0a4.28,4.28,0,0,1,3.84-2.18c1.61,0,4.11,1,4.11,4.94v6.94h-2.11v-6.7c0-1.87-.7-3.43-2.69-3.43A3,3,0,0,0,215,12.12a2.88,2.88,0,0,0-.15,1v7h-2.11Z"/><line class="cls-3" x1="217.36" y1="202.84" x2="99.68" y2="85.15"/><polygon points="107.04 84.73 100.14 85.61 99.26 92.52 93.95 79.42 107.04 84.73"/><polygon class="cls-4" points="105.09 84.48 94.87 80.35 99.69 85.17 105.09 84.48"/><polygon class="cls-5" points="99.01 90.56 94.87 80.35 99.69 85.17 99.01 90.56"/><path class="cls-3" d="M77.11,202.84a140.25,140.25,0,0,1,280.5,0"/><path class="cls-3" d="M77.23,202.79c0,33.83,62.8,61.26,140.27,61.26s140.26-27.43,140.26-61.26"/><path d="M44.48,57.76h1.74v12H52v1.46h-7.5Z"/><path d="M54.39,66.68a.6.6,0,0,1-.65.63.61.61,0,0,1-.62-.63.63.63,0,0,1,.64-.64A.61.61,0,0,1,54.39,66.68Zm-1.14,7.23V68.26h1v5.65Z"/><path d="M60.41,57.36a13.19,13.19,0,0,0-2.52,8.18,13.49,13.49,0,0,0,2.52,8.13H59a12.94,12.94,0,0,1-2.62-8.13A13.2,13.2,0,0,1,59,57.36Z"/><path d="M62.27,64.72c0-1.24,0-2.24-.08-3.16h1.58l.08,1.66h0a3.81,3.81,0,0,1,3.44-1.88c2.34,0,4.1,2,4.1,4.92,0,3.49-2.12,5.21-4.4,5.21a3.39,3.39,0,0,1-3-1.52h0v5.26H62.27ZM64,67.31a4,4,0,0,0,.08.72,2.72,2.72,0,0,0,2.64,2.06c1.86,0,2.94-1.52,2.94-3.75,0-1.94-1-3.6-2.88-3.6a2.81,2.81,0,0,0-2.66,2.18,2.93,2.93,0,0,0-.12.72Z"/><path d="M72,73.71a28.78,28.78,0,0,0,1.2-4.78l2-.2a24.38,24.38,0,0,1-1.9,4.86Z"/><path d="M87.81,67.81c0,1.24.7,2.2,1.66,2.2s2-1.24,2-3.84a6.61,6.61,0,0,0-1.6-4.55v-.06h1.66a6.28,6.28,0,0,1,1.66,4.65c0,3.6-1.82,5.26-3.66,5.26A2.61,2.61,0,0,1,87,69.75H87a2.71,2.71,0,0,1-2.56,1.72c-1.68,0-3.54-1.42-3.54-5.1a7,7,0,0,1,1.7-4.81h1.62v.06a7,7,0,0,0-1.6,4.71c0,2.7,1.14,3.68,2.06,3.68s1.6-1,1.6-2.18l0-3.71h1.66Z"/><path d="M94,73.67a13.55,13.55,0,0,0,2.52-8.19A13.26,13.26,0,0,0,94,57.36h1.36A12.74,12.74,0,0,1,98,65.5a13,13,0,0,1-2.62,8.17Z"/></svg>